HIERARCHY
ROOT Hips
{
    OFFSET 0.000000 0.000000 0.000000
    CHANNELS 6 Xposition Yposition Zposition Zrotation Xrotation Yrotation
    JOINT Spine
    {
        OFFSET -0.000000 6.993131 0.000000
        CHANNELS 3 Zrotation Xrotation Yrotation
        JOINT Spine1
        {
            OFFSET -0.000000 20.649729 0.000000
            CHANNELS 3 Zrotation Xrotation Yrotation
            JOINT Neck
            {
                OFFSET -0.000000 20.564924 1.869539
                CHANNELS 3 Zrotation Xrotation Yrotation
                JOINT Head
                {
                    OFFSET -0.000000 11.939490 -1.705642
                    CHANNELS 3 Zrotation Xrotation Yrotation
                    End Site
                    {
                        OFFSET -0.000000 21.320518 0.000000
                    }
                }
            }
            JOINT LeftShoulder
            {
                OFFSET 3.446977 19.850397 -0.038759
                CHANNELS 3 Zrotation Xrotation Yrotation
                JOINT LeftArm
                {
                    OFFSET 7.083611 0.000000 0.000000
                    CHANNELS 3 Zrotation Xrotation Yrotation
                    JOINT LeftForeArm
                    {
                        OFFSET 32.044487 0.000000 0.000000
                        CHANNELS 3 Zrotation Xrotation Yrotation
                        JOINT LeftHand
                        {
                            OFFSET 22.068741 0.000000 0.000000
                            CHANNELS 3 Zrotation Xrotation Yrotation
                            End Site
                            {
                                OFFSET 12.792312 0.000000 0.000000
                            }
                        }
                    }
                }
            }
            JOINT RightShoulder
            {
                OFFSET -3.365844 19.850397 -0.038759
                CHANNELS 3 Zrotation Xrotation Yrotation
                JOINT RightArm
                {
                    OFFSET -7.083611 0.000000 0.000000
                    CHANNELS 3 Zrotation Xrotation Yrotation
                    JOINT RightForeArm
                    {
                        OFFSET -32.044487 0.000000 0.000000
                        CHANNELS 3 Zrotation Xrotation Yrotation
                        JOINT RightHand
                        {
                            OFFSET -22.068741 0.000000 0.000000
                            CHANNELS 3 Zrotation Xrotation Yrotation
                            End Site
                            {
                                OFFSET -12.792312 0.000000 0.000000
                            }
                        }
                    }
                }
            }
        }
    }
    JOINT LeftUpLeg
    {
        OFFSET 8.528208 0.000000 0.000000
        CHANNELS 3 Zrotation Xrotation Yrotation
        JOINT LeftLeg
        {
            OFFSET -0.000000 -31.874865 0.000000
            CHANNELS 3 Zrotation Xrotation Yrotation
            JOINT LeftFoot
            {
                OFFSET -0.000000 -38.221939 0.000000
                CHANNELS 3 Zrotation Xrotation Yrotation
                JOINT LeftToeBase
                {
                    OFFSET -0.000000 -5.543335 12.792312
                    CHANNELS 3 Zrotation Xrotation Yrotation
                    End Site
                    {
                        OFFSET -0.000000 0.000000 3.411283
                    }
                }
            }
        }
    }
    JOINT RightUpLeg
    {
        OFFSET -8.528208 0.000000 0.000000
        CHANNELS 3 Zrotation Xrotation Yrotation
        JOINT RightLeg
        {
            OFFSET -0.000000 -31.874865 0.000000
            CHANNELS 3 Zrotation Xrotation Yrotation
            JOINT RightFoot
            {
                OFFSET -0.000000 -38.221939 0.000000
                CHANNELS 3 Zrotation Xrotation Yrotation
                JOINT RightToeBase
                {
                    OFFSET -0.000000 -5.543335 12.792312
                    CHANNELS 3 Zrotation Xrotation Yrotation
                    End Site
                    {
                        OFFSET -0.000000 0.000000 3.411283
                    }
                }
            }
        }
    }
}
MOTION
Frames:    13
Frame Time:    0.008333
37.659966    75.594055    27.559191    -0.584455    0.399832    91.260056    -0.538236    -4.293780    0.371995    -3.705988    2.217554    0.464112    6.285661    14.344293    10.006384    -5.811455    -2.033152    9.379252    21.598312    1.776494    0.146671    -21.024326    2.610820    -8.394100    7.622998    1.377349    -4.217029    4.035997    1.626698    -0.898264    -8.824245    0.856685    -0.353825    11.044290    4.013860    5.383842    -9.701184    5.593694    8.582421    -0.606738    6.317245    0.419530    -2.800948    0.414933    0.798935    2.223314    9.657254    0.102469    -1.126023    -12.577567    -2.655425    0.000000    0.000000    0.000000    -12.272089    1.072648    0.090217    10.114585    6.430310    0.700388    -2.128188    -6.545093    -6.654153    0.000000    0.000000    0.000000    
37.644299    75.601669    27.564102    -0.593219    0.374373    91.288887    -0.459487    -4.368519    0.304359    -3.791638    2.352712    0.399853    6.195999    14.312775    10.070826    -5.741144    -2.103585    9.453876    21.343590    1.963142    0.259957    -21.077011    2.844538    -8.199224    7.901813    0.604282    -4.860841    4.113415    0.918160    -0.614890    -8.605476    0.888200    -0.300512    11.156596    4.026585    5.367217    -9.903945    5.406457    8.857922    -0.524921    6.169542    0.445075    -2.771640    0.386599    0.780180    2.228464    9.666313    0.033568    -1.125594    -12.561790    -2.598077    0.000000    0.000000    0.000000    -12.236988    1.065128    0.056972    10.101972    6.415902    0.690623    -2.080750    -6.494057    -6.642013    0.000000    0.000000    0.000000    
37.630768    75.602562    27.566742    -0.612199    0.364969    91.298424    -0.440403    -4.442225    0.259345    -3.786735    2.485097    0.358608    6.074904    14.217963    10.120693    -5.658356    -2.097679    9.516148    21.153481    2.047308    0.326027    -21.089422    2.826373    -8.089220    7.938454    0.339774    -5.189090    4.387693    0.684108    -0.417129    -8.550447    0.890647    -0.269886    11.256325    3.923596    5.386014    -9.898890    5.193765    9.046869    -1.014472    5.973237    0.216233    -2.765217    0.345717    0.776216    2.238784    9.681923    0.137126    -1.147573    -12.560294    -2.715147    0.000000    0.000000    0.000000    -12.227186    1.034360    0.016517    10.100787    6.423779    0.679537    -2.053495    -6.481594    -6.608862    0.000000    0.000000    0.000000    
37.621025    75.603691    27.567900    -0.612840    0.366544    91.306335    -0.399814    -4.514747    0.220598    -3.854848    2.647362    0.325723    6.001988    14.074718    10.182015    -5.559304    -2.038253    9.591987    21.062059    2.112523    0.353286    -21.177364    2.770657    -7.965887    7.960156    0.120476    -5.484054    4.247913    0.496727    -0.154138    -8.453381    0.842459    -0.234681    11.415910    3.759280    5.423553    -10.009295    5.076967    9.152652    -0.949604    5.875713    0.099511    -2.763856    0.343942    0.751232    2.230119    9.667306    0.114378    -1.146356    -12.543498    -2.666396    0.000000    0.000000    0.000000    -12.232028    1.029719    0.013332    10.107621    6.426470    0.705584    -2.056452    -6.481052    -6.641082    0.000000    0.000000    0.000000    
37.609596    75.601974    27.568140    -0.613753    0.364768    91.303207    -0.370837    -4.586545    0.188582    -3.885246    2.831012    0.299704    5.936517    13.857527    10.238344    -5.498008    -1.908983    9.655806    20.986370    2.124965    0.374026    -21.320494    2.834010    -7.841064    7.972402    0.073779    -5.702497    4.729186    0.473248    0.038967    -8.424141    0.776941    -0.251892    11.578095    3.734947    5.469596    -9.933089    4.951024    9.319746    -1.738371    5.759064    0.007781    -2.771388    0.325648    0.777386    2.251913    9.684154    0.053237    -1.116452    -12.566028    -2.622877    0.000000    0.000000    0.000000    -12.238409    1.009303    -0.021400    10.119483    6.447743    0.765151    -2.067260    -6.481567    -6.665562    0.000000    0.000000    0.000000    
37.596195    75.597679    27.570063    -0.631734    0.364591    91.306107    -0.360613    -4.693436    0.164632    -3.898673    3.060277    0.283671    5.873773    13.581376    10.282408    -5.420744    -1.741058    9.707949    20.938215    2.094589    0.397460    -21.517378    3.046600    -7.711181    8.165170    0.182188    -5.902843    4.475947    0.607596    0.095553    -8.396246    0.678312    -0.328448    11.770237    3.863235    5.523900    -10.068156    4.791800    9.552221    -1.545399    5.632395    -0.049987    -2.763286    0.300462    0.769662    2.235406    9.678635    0.060776    -1.088721    -12.583797    -2.628542    0.000000    0.000000    0.000000    -12.239760    0.980545    -0.001641    10.122527    6.447748    0.730680    -2.067569    -6.494803    -6.646141    0.000000    0.000000    0.000000    
37.570400    75.594215    27.575493    -0.659585    0.362557    91.232719    -0.335983    -4.779254    0.160694    -3.927597    3.249699    0.286085    5.791196    13.340532    10.353018    -5.332794    -1.624642    9.789653    20.878851    2.087260    0.440955    -21.676897    3.246909    -7.575799    8.188029    0.300908    -6.161434    4.603838    0.751630    0.230692    -8.349708    0.607565    -0.364901    11.967076    3.994800    5.586709    -10.154747    4.704778    9.752843    -1.946554    5.571175    -0.072597    -2.758138    0.252152    0.855187    2.234625    9.692638    0.055683    -1.112050    -12.595458    -2.623409    0.000000    0.000000    0.000000    -12.238449    0.880633    0.046192    10.126712    6.502825    0.740796    -2.087110    -6.508784    -6.656424    0.000000    0.000000    0.000000    
37.557228    75.590042    27.576374    -0.671296    0.370178    91.225586    -0.294727    -4.858899    0.119463    -3.999293    3.429314    0.251699    5.723788    13.106682    10.430162    -5.262070    -1.472586    9.877255    20.815998    2.125655    0.480271    -21.827826    3.540414    -7.465804    8.287275    0.363734    -6.327965    4.435818    0.831820    0.237820    -8.299011    0.572498    -0.370694    12.153321    4.053177    5.671398    -10.108541    4.763229    9.884347    -2.289217    5.632439    0.179893    -2.763319    0.238443    0.849737    2.233366    9.685217    0.050157    -1.099472    -12.606276    -2.620095    0.000000    0.000000    0.000000    -12.251125    0.845926    0.037065    10.131880    6.525797    0.745591    -2.101193    -6.520899    -6.646600    0.000000    0.000000    0.000000    
37.544785    75.585442    27.580729    -0.682299    0.363775    91.227615    -0.280041    -4.938981    0.078039    -4.012018    3.597505    0.216857    5.653996    12.906363    10.490243    -5.203534    -1.343806    9.946153    20.707867    2.159755    0.497292    -22.019205    3.752892    -7.355702    8.410189    0.462602    -6.482683    4.510386    0.947884    0.207608    -8.220887    0.570221    -0.363799    12.347187    4.155447    5.722889    -10.260882    4.677926    10.068891    -2.043056    5.576752    0.220640    -2.755310    0.212219    0.872647    2.242143    9.701861    -0.045345    -1.074938    -12.640034    -2.543954    0.000000    0.000000    0.000000    -12.240701    0.823885    0.032732    10.130351    6.533190    0.753272    -2.130898    -6.534230    -6.659857    0.000000    0.000000    0.000000    
37.534100    75.581207    27.583958    -0.689665    0.369060    91.230812    -0.281015    -5.030766    0.049429    -4.025515    3.786494    0.195757    5.633439    12.718806    10.542448    -5.201059    -1.241318    9.996341    20.595835    2.193526    0.517241    -22.224850    3.613926    -7.371585    8.446922    0.713077    -6.448861    4.434030    1.189968    0.004987    -8.131300    0.572239    -0.377352    12.523900    4.251818    5.745227    -10.258187    4.612290    10.289831    -2.570893    5.529383    0.241554    -2.760237    0.206052    0.875302    2.241459    9.682331    -0.063263    -1.030254    -12.663710    -2.523567    0.000000    0.000000    0.000000    -12.249456    0.814119    0.054607    10.142340    6.516466    0.727209    -2.163024    -6.544937    -6.654292    0.000000    0.000000    0.000000    
37.520905    75.574722    27.588051    -0.702494    0.368772    91.239738    -0.268753    -5.136977    0.010065    -4.049278    4.012809    0.167000    5.594869    12.535789    10.599251    -5.199646    -1.212416    10.048822    20.420218    2.298593    0.537292    -22.290089    4.097318    -7.256786    8.446822    0.490655    -6.682022    4.641122    0.988596    0.098430    -8.033872    0.578699    -0.420444    12.696388    4.407709    5.833436    -10.317616    4.574552    10.409403    -2.265402    5.502307    0.558216    -2.758182    0.180773    0.880118    2.244741    9.686877    -0.073955    -1.015288    -12.695799    -2.529999    0.000000    0.000000    0.000000    -12.248553    0.785674    0.038962    10.144657    6.538640    0.748470    -2.185385    -6.575586    -6.678910    0.000000    0.000000    0.000000    
37.509106    75.570595    27.593040    -0.711854    0.364146    91.243568    -0.275206    -5.221708    -0.012545    -4.038373    4.187325    0.159603    5.567037    12.393663    10.635808    -5.204955    -1.185186    10.080962    20.380800    2.282576    0.523964    -22.651089    4.404382    -7.148555    8.600713    0.320497    -6.844646    4.576932    0.837668    0.048354    -7.906332    0.608981    -0.489114    12.848992    4.539159    5.910490    -10.288953    4.324946    10.592138    -2.496062    5.270224    0.356702    -2.740007    0.168148    0.865293    2.228851    9.684271    -0.094839    -1.002097    -12.719954    -2.495097    0.000000    0.000000    0.000000    -12.237300    0.771188    0.040512    10.140561    6.531211    0.755541    -2.202626    -6.586920    -6.685268    0.000000    0.000000    0.000000    
37.495869    75.567795    27.596096    -0.728494    0.366303    91.255028    -0.310415    -5.314738    0.002729    -4.012719    4.370550    0.171215    5.628592    12.236636    10.639197    -5.276959    -1.138815    10.065285    20.273392    2.329629    0.479856    -22.857487    4.547434    -7.114983    8.540212    0.149239    -6.998212    4.618475    0.669100    -0.081827    -7.685810    0.583436    -0.777232    12.901924    4.704600    6.143168    -10.274714    4.276927    10.708420    -2.558398    5.226673    0.562119    -2.741774    0.139127    0.862224    2.229182    9.677468    -0.027910    -0.993977    -12.721441    -2.578793    0.000000    0.000000    0.000000    -12.242361    0.746231    0.057915    10.152904    6.531184    0.695348    -2.227146    -6.595045    -6.670228    0.000000    0.000000    0.000000    
